<?xml version="1.0" encoding="iso-8859-1"?>
<!-- Generator: Adobe Illustrator 19.0.0, SVG Export Plug-In . SVG Version: 6.00 Build 0)  -->
<svg xmlns="http://www.w3.org/2000/svg" xmlns:xlink="http://www.w3.org/1999/xlink" version="1.1" id="Capa_1" x="0px" y="0px" viewBox="0 0 512 512" style="enable-background:new 0 0 512 512;" xml:space="preserve" width="512px" height="512px">
<g>
	<g>
		<path d="M329.846,492.308H103.385C81.669,492.308,64,474.639,64,452.923V128h216.615v294.006c0,5.435,4.411,9.846,9.846,9.846    s9.846-4.411,9.846-9.846V118.154c0-5.435-4.411-9.846-9.846-9.846H54.154c-5.435,0-9.846,4.411-9.846,9.846v334.769    c0,32.576,26.501,59.077,59.077,59.077h226.462c5.435,0,9.846-4.411,9.846-9.846S335.281,492.308,329.846,492.308z" fill="#FFFFFF"/>
	</g>
</g>
<g>
	<g>
		<path d="M290.462,49.231H54.154c-5.435,0-9.846,4.411-9.846,9.846v59.077c0,5.435,4.411,9.846,9.846,9.846h236.308    c5.435,0,9.846-4.411,9.846-9.846V59.077C300.308,53.642,295.897,49.231,290.462,49.231z M280.615,108.308H64V68.923h216.615    V108.308z" fill="#FFFFFF"/>
	</g>
</g>
<g>
	<g>
		<path d="M457.846,354.462h-88.615c-5.435,0-9.846,4.411-9.846,9.846v59.077c0,5.435,4.411,9.846,9.846,9.846h88.615    c5.435,0,9.846-4.411,9.846-9.846v-59.077C467.692,358.873,463.281,354.462,457.846,354.462z M448,413.538h-68.923v-39.385H448    V413.538z" fill="#FFFFFF"/>
	</g>
</g>
<g>
	<g>
		<path d="M54.154,0c-5.435,0-9.846,4.411-9.846,9.846v108.308c0,5.435,4.411,9.846,9.846,9.846c5.435,0,9.846-4.411,9.846-9.846    V9.846C64,4.411,59.589,0,54.154,0z" fill="#FFFFFF"/>
	</g>
</g>
<g>
	<g>
		<path d="M113.231,0c-5.435,0-9.846,4.411-9.846,9.846v49.231c0,5.435,4.411,9.846,9.846,9.846s9.846-4.411,9.846-9.846V9.846    C123.077,4.411,118.666,0,113.231,0z" fill="#FFFFFF"/>
	</g>
</g>
<g>
	<g>
		<path d="M172.308,0c-5.435,0-9.846,4.411-9.846,9.846v49.231c0,5.435,4.411,9.846,9.846,9.846c5.435,0,9.846-4.411,9.846-9.846    V9.846C182.154,4.411,177.743,0,172.308,0z" fill="#FFFFFF"/>
	</g>
</g>
<g>
	<g>
		<path d="M231.385,0c-5.435,0-9.846,4.411-9.846,9.846v49.231c0,5.435,4.411,9.846,9.846,9.846c5.435,0,9.846-4.411,9.846-9.846    V9.846C241.231,4.411,236.82,0,231.385,0z" fill="#FFFFFF"/>
	</g>
</g>
<g>
	<g>
		<path d="M408.615,413.538c-5.435,0-9.846,4.411-9.846,9.846v49.231c0,5.435,4.411,9.846,9.846,9.846s9.846-4.411,9.846-9.846    v-49.231C418.462,417.95,414.05,413.538,408.615,413.538z" fill="#FFFFFF"/>
	</g>
</g>
<g>
	<g>
		<path d="M290.462,0c-5.435,0-9.846,4.411-9.846,9.846v49.231c0,5.435,4.411,9.846,9.846,9.846s9.846-4.411,9.846-9.846V9.846    C300.308,4.411,295.897,0,290.462,0z" fill="#FFFFFF"/>
	</g>
</g>
<g>
	<g>
		<path d="M457.846,413.538c-5.435,0-9.846,4.411-9.846,9.846v49.231c0,5.435,4.411,9.846,9.846,9.846s9.846-4.411,9.846-9.846    v-49.231C467.692,417.95,463.281,413.538,457.846,413.538z" fill="#FFFFFF"/>
	</g>
</g>
<g>
	<g>
		<path d="M408.615,167.385H290.462c-5.435,0-9.846,4.411-9.846,9.846v285.538c0,27.146,22.085,49.231,49.231,49.231    c27.146,0,49.231-22.085,49.231-49.231V237.701c0-5.435-4.411-9.846-9.846-9.846s-9.846,4.411-9.846,9.846v225.068    c0,16.29-13.248,29.539-29.538,29.539c-16.29,0-29.539-13.248-29.539-29.539V187.077h108.308c5.435,0,9.846-4.411,9.846-9.846    S414.05,167.385,408.615,167.385z" fill="#FFFFFF"/>
	</g>
</g>
<g>
	<g>
		<path d="M418.462,167.385h-9.846c-27.146,0-49.231,22.085-49.231,49.231v147.692c0,5.435,4.411,9.846,9.846,9.846h88.615    c5.435,0,9.846-4.411,9.846-9.846V216.615C467.692,189.47,445.607,167.385,418.462,167.385z M448,354.462h-68.923V216.615    c0-16.29,13.248-29.539,29.538-29.539h9.846c16.29,0,29.538,13.248,29.538,29.539V354.462z" fill="#FFFFFF"/>
	</g>
</g>
<g>
</g>
<g>
</g>
<g>
</g>
<g>
</g>
<g>
</g>
<g>
</g>
<g>
</g>
<g>
</g>
<g>
</g>
<g>
</g>
<g>
</g>
<g>
</g>
<g>
</g>
<g>
</g>
<g>
</g>
</svg>
