<?xml version="1.0" encoding="iso-8859-1"?>
<!-- Generator: Adobe Illustrator 19.0.0, SVG Export Plug-In . SVG Version: 6.00 Build 0)  -->
<svg xmlns="http://www.w3.org/2000/svg" xmlns:xlink="http://www.w3.org/1999/xlink" version="1.1" id="Capa_1" x="0px" y="0px" viewBox="0 0 512 512" style="enable-background:new 0 0 512 512;" xml:space="preserve" width="512px" height="512px">
<g>
	<g>
		<path d="M316,444.5v-63.203c-7.724,4.613-17.312,7.914-30.004,7.914c-5.104,0-10.137-0.654-14.996-1.907V467h-30v-79.696    c-4.859,1.253-9.892,1.907-14.996,1.907c-14.445,0-23.574-4.414-30.004-9.97v65.26L106,512h300L316,444.5z" fill="#FDFCFC"/>
	</g>
</g>
<g>
	<g>
		<polygon points="414.5,151 393.142,151 389.228,196 436.5,196 436.5,226 386.619,226 382.706,271 414.5,271 482,361 482,61   " fill="#FDFCFC"/>
	</g>
</g>
<g>
	<g>
		<polygon points="125.38,226 75,226 75,196 122.771,196 118.857,151 97.5,151 30,61 30,361 97.5,271 129.294,271   " fill="#FDFCFC"/>
	</g>
</g>
<g>
	<g>
		<path d="M106,0l90,67.5v30.3c7.711-3.805,17.279-6.583,30.002-6.583c5.095,0,10.131,0.551,14.998,1.59V45.5h30v47.307    c4.866-1.039,9.901-1.59,14.996-1.59c12.724,0,22.292,2.779,30.004,6.584V67.5L406,0H106z" fill="#FDFCFC"/>
	</g>
</g>
<g>
	<g>
		<path d="M361.999,151c-24.179,0-36.974-10.028-47.255-18.085c-8.988-7.044-14.926-11.698-28.748-11.698    c-6.073,0-11.974,1.285-17.062,3.717l-12.936,6.182l-12.936-6.182c-5.088-2.432-10.988-3.717-17.062-3.717    c-13.822,0-19.76,4.654-28.748,11.698C186.973,140.972,174.178,151,149.999,151h-1.028l14.852,170.756    c26.442,3.103,37.321,15.28,46.088,27.712c5.552,7.873,6.871,9.743,16.094,9.743c5.265,0,10.445-1.386,14.982-4.009L256,346.524    l15.014,8.678c4.537,2.623,9.718,4.009,14.982,4.009c12.22,0,17.502-4.767,27.366-14.685c8.316-8.362,18.258-18.357,34.754-22.056    L363.028,151H361.999z M256,317.748c-33.636,0-61-27.364-61-61c0-0.162,0.003-0.323,0.007-0.484L195.001,166h121.998L317,256.748    C317,290.383,289.636,317.748,256,317.748z" fill="#FDFCFC"/>
	</g>
</g>
<g>
	<g>
		<path d="M286.999,196h-61.996l0.004,60.46c0,0.156-0.002,0.311-0.006,0.466c0.096,17.012,13.965,30.821,30.999,30.821    c17.094,0,31-13.907,31-31L286.999,196z" fill="#FDFCFC"/>
	</g>
</g>
<g>
</g>
<g>
</g>
<g>
</g>
<g>
</g>
<g>
</g>
<g>
</g>
<g>
</g>
<g>
</g>
<g>
</g>
<g>
</g>
<g>
</g>
<g>
</g>
<g>
</g>
<g>
</g>
<g>
</g>
</svg>
