<?xml version="1.0" encoding="iso-8859-1"?>
<!-- Generator: Adobe Illustrator 19.0.0, SVG Export Plug-In . SVG Version: 6.00 Build 0)  -->
<svg xmlns="http://www.w3.org/2000/svg" xmlns:xlink="http://www.w3.org/1999/xlink" version="1.1" id="Capa_1" x="0px" y="0px" viewBox="0 0 512 512" style="enable-background:new 0 0 512 512;" xml:space="preserve" width="512px" height="512px">
<g>
	<g>
		<path d="M339.141,59.842v177.613c0,82.395-48.87,156.821-124.502,189.607l-62.178,26.954l19.53,15.518    c20.36,16.177,42.716,29.598,66.45,39.886l5.95,2.579l5.95-2.579c108.473-47.024,178.564-153.778,178.564-271.966V59.842H339.141z     M398.983,237.454c0,104.079-60.463,198.296-154.591,241.847c-11.397-5.28-22.422-11.373-32.983-18.227l15.13-6.56    c86.579-37.532,142.522-122.734,142.522-217.06V89.763h29.921V237.454z" fill="#F8F6F6"/>
	</g>
</g>
<g>
	<g>
		<path d="M84.811,59.842v89.763h134.645v87.849c0,34.67-20.577,65.992-52.421,79.798l-83.944,36.389l6.903,14.077    c9.356,19.083,20.825,37.222,34.088,53.913l7.137,8.981l71.518-31.003c64.687-28.042,106.482-91.692,106.482-162.156V59.842    H84.811z M279.299,237.453c0,58.533-34.723,111.407-88.461,134.703l-50.234,21.777c-5.951-8.184-11.436-16.704-16.413-25.496    l54.746-23.732c42.79-18.551,70.44-60.649,70.44-107.25v-117.77H114.732V89.763h164.566V237.453z" fill="#F8F6F6"/>
	</g>
</g>
<g>
	<g>
		<rect x="84.815" width="344.093" height="29.921" fill="#F8F6F6"/>
	</g>
</g>
<g>
</g>
<g>
</g>
<g>
</g>
<g>
</g>
<g>
</g>
<g>
</g>
<g>
</g>
<g>
</g>
<g>
</g>
<g>
</g>
<g>
</g>
<g>
</g>
<g>
</g>
<g>
</g>
<g>
</g>
</svg>
